PathFileType	4	(X/Y/Z)	/Users/itak/Documents/Research/Walk-IL/dataset/trc/00310_00010.trc
DataRate	CameraRate	NumFrames	NumMarkers	Units	OrigDataRate	OrigDataStartFrame	OrigNumFrames
100.000000	100.000000	4	53	mm	100.000000	65	523
Frame#	Time	RPSI			LPSI			L3			STRN			T10			C7			CLAV			RBAK			LBAK			LSHO			LUPA			LAEL			LAOL			LWTS			LWPS			LFRA			LIFD			LHPS			LHTS			RSHO			RUPA			RAEL			RAOL			RWTS			RWPS			RFRA			RIFD			RHTS			RHPS			RBHD			LFHD			RFHD			LBHD			LHIP			RHIP			RASI			LASI			LKNE			LTHI			LANK			LTIP			LTOE			LMT1			LMT5			LHEE			RKNE			RTHI			RANK			RTIP			RTOE			RMT1			RMT5			RHEE			
		X1	Y1	Z1	X2	Y2	Z2	X3	Y3	Z3	X4	Y4	Z4	X5	Y5	Z5	X6	Y6	Z6	X7	Y7	Z7	X8	Y8	Z8	X9	Y9	Z9	X10	Y10	Z10	X11	Y11	Z11	X12	Y12	Z12	X13	Y13	Z13	X14	Y14	Z14	X15	Y15	Z15	X16	Y16	Z16	X17	Y17	Z17	X18	Y18	Z18	X19	Y19	Z19	X20	Y20	Z20	X21	Y21	Z21	X22	Y22	Z22	X23	Y23	Z23	X24	Y24	Z24	X25	Y25	Z25	X26	Y26	Z26	X27	Y27	Z27	X28	Y28	Z28	X29	Y29	Z29	X30	Y30	Z30	X31	Y31	Z31	X32	Y32	Z32	X33	Y33	Z33	X34	Y34	Z34	X35	Y35	Z35	X36	Y36	Z36	X37	Y37	Z37	X38	Y38	Z38	X39	Y39	Z39	X40	Y40	Z40	X41	Y41	Z41	X42	Y42	Z42	X43	Y43	Z43	X44	Y44	Z44	X45	Y45	Z45	X46	Y46	Z46	X47	Y47	Z47	X48	Y48	Z48	X49	Y49	Z49	X50	Y50	Z50	X51	Y51	Z51	X52	Y52	Z52	X53	Y53	Z53	

66	0.65	-1116.387573242188	999.0028076171875	-559.3908081054688	-1125.696166992188	996.8248291015625	-734.5404663085938	-1098.58740234375	1072.921264648438	-652.5532836914062	-837.5594482421875	1234.4755859375	-677.8231201171875	-1105.009887695312	1186.604736328125	-657.3630981445312	-1046.452392578125	1427.633056640625	-687.69140625	-895.3797607421875	1337.605102539062	-683.4813232421875	-1100.660766601562	1297.367065429688	-602.8703002929688	-1068.733764648438	1386.17333984375	-789.1159057617188	-981.2674560546875	1384.929809570312	-846.6599731445312	-1015.725036621094	1265.36328125	-913.4512329101562	-1016.819458007812	1060.32666015625	-922.1638793945312	-1073.779296875	1052.31298828125	-857.3626708984375	-948.710693359375	833.6793823242188	-871.6165771484375	-988.5267333984375	823.2835083007812	-931.6514892578125	-1009.395874023438	955.3408813476562	-927.875	-960.9647827148438	649.3521728515625	-868.9888305664062	-990.9217529296875	734.7396240234375	-926.803466796875	-935.5132446289062	733.4141845703125	-890.1109619140625	-974.1785888671875	1409.903198242188	-530.9332885742188	-981.74365234375	1354.615356445312	-462.3602600097656	-1006.175476074219	1095.082641601562	-390.7489624023438	-1037.356201171875	1081.175659179688	-480.3956298828125	-904.4009399414062	869.1563720703125	-414.3454284667969	-956.351318359375	869.8582763671875	-344.82861328125	-985.3941650390625	1028.495849609375	-371.0595397949219	-897.9313354492188	684.8859252929688	-398.1027526855469	-877.2256469726562	756.7189331054688	-382.0627746582031	-931.9971923828125	759.1985473632812	-335.5607299804688	-1031.59619140625	1580.65576171875	-635.0330810546875	-851.603515625	1629.869262695312	-737.7493896484375	-863.1908569335938	1632.210571289062	-645.3663330078125	-1012.2880859375	1567.229614257812	-779.0081176757812	-1060.950805664062	948.1900024414062	-834.2662353515625	-1009.7109375	946.1136474609375	-462.2213134765625	-897.589599609375	949.9256591796875	-541.4530029296875	-921.4644775390625	950.2911376953125	-791.7178344726562	-1007.850646972656	479.8930053710938	-794.6222534179688	-1009.576782226562	621.9114379882812	-820.055908203125	-1124.547119140625	46.67388534545898	-751.8142700195312	-1071.85400390625	257.3961181640625	-782.2949829101562	-913.1361694335938	38.96149444580078	-714.3661499023438	-978.1555786132812	31.94869232177734	-666.5944213867188	-1004.323913574219	41.97315979003906	-777.0022583007812	-1164.300415039062	43.69141387939453	-687.7099609375	-945.1487426757812	476.0299072265625	-483.2656555175781	-938.4945068359375	739.8035278320312	-465.0289916992188	-1103.753662109375	54.74676132202148	-473.8694152832031	-960.5023193359375	351.2807922363281	-485.3726501464844	-910.2378540039062	43.65321731567383	-526.3413696289062	-968.664306640625	39.9170036315918	-566.2820434570312	-1000.262573242188	40.87692260742188	-451.7806701660156	-1157.478637695312	50.00125503540039	-521.1126708984375	
67	0.66	-1115.663330078125	998.0220947265625	-560.1405029296875	-1125.183959960938	996.4706420898438	-735.30908203125	-1098.237915039062	1072.895141601562	-653.4133911132812	-835.8781127929688	1233.386962890625	-678.2674560546875	-1103.8173828125	1187.203735351562	-658.4281616210938	-1043.662719726562	1427.820556640625	-688.83251953125	-893.1465454101562	1336.709838867188	-684.079345703125	-1098.94677734375	1297.927368164062	-603.991455078125	-1065.779418945312	1386.33935546875	-790.3561401367188	-978.1047973632812	1384.430786132812	-847.5386962890625	-1012.599182128906	1264.911987304688	-914.3504638671875	-1014.033081054688	1059.920288085938	-923.2761840820312	-1071.565063476562	1051.965454101562	-858.9699096679688	-946.1546020507812	833.402587890625	-872.337646484375	-985.6637573242188	822.9578857421875	-932.5919189453125	-1006.554382324219	954.9155883789062	-928.939208984375	-958.0032958984375	649.05810546875	-869.8819580078125	-987.8816528320312	734.418212890625	-927.7887573242188	-932.682861328125	733.1869506835938	-890.83154296875	-971.8607788085938	1409.662719726562	-531.8062744140625	-979.9195556640625	1354.447875976562	-463.2342529296875	-1006.218688964844	1095.136108398438	-391.55419921875	-1037.216674804688	1081.32275390625	-481.1885375976562	-905.9796142578125	868.4683227539062	-414.2897033691406	-958.3097534179688	869.6788940429688	-344.9214477539062	-986.0135498046875	1028.452880859375	-371.5532531738281	-900.7348022460938	684.233642578125	-397.4004516601562	-879.68310546875	755.9949340820312	-381.4480590820312	-934.7868041992188	758.9089965820312	-335.3121337890625	-1029.082885742188	1579.96142578125	-636.2283325195312	-849.0460205078125	1629.562744140625	-738.5765991210938	-860.8069458007812	1631.960571289062	-646.2294921875	-1009.476013183594	1566.471557617188	-780.1237182617188	-1060.387329101562	948.1480712890625	-835.220458984375	-1008.71923828125	945.2723999023438	-463.1910400390625	-896.55615234375	949.455810546875	-542.500732421875	-920.837158203125	950.2987060546875	-792.7730102539062	-1007.711364746094	479.9278564453125	-795.407470703125	-1009.173828125	621.9555053710938	-820.7882080078125	-1124.41259765625	46.87367248535156	-751.7591552734375	-1071.628662109375	257.4159851074219	-782.4619140625	-912.9470825195312	38.67361831665039	-714.4837646484375	-978.103271484375	31.98491859436035	-666.5631713867188	-1004.234008789062	41.89734649658203	-777.0399169921875	-1164.074829101562	44.01237487792969	-687.6176147460938	-940.8724365234375	475.8198852539062	-483.4664001464844	-936.4495849609375	739.6008911132812	-465.9197387695312	-1103.156372070312	55.93861389160156	-473.359375	-956.8689575195312	351.1114501953125	-485.6658630371094	-909.994873046875	43.51362991333008	-526.4935302734375	-968.556396484375	39.99494934082031	-566.2376708984375	-999.867919921875	41.13722229003906	-451.5095825195312	-1157.089599609375	51.64607238769531	-520.4090576171875	
68	0.67	-1114.873291015625	997.2124633789062	-560.9141235351562	-1124.62939453125	996.146728515625	-736.0791015625	-1097.875	1072.904663085938	-654.2915649414062	-834.180908203125	1232.341430664062	-678.7169799804688	-1102.638793945312	1187.886840820312	-659.4857788085938	-1040.847900390625	1428.069946289062	-689.9430541992188	-890.8970336914062	1335.84814453125	-684.662353515625	-1097.218872070312	1298.568603515625	-605.0692138671875	-1062.79541015625	1386.57666015625	-791.5716552734375	-974.9129028320312	1383.997924804688	-848.3785400390625	-1009.414978027344	1264.521850585938	-915.1918334960938	-1011.160705566406	1059.59228515625	-924.340087890625	-1069.31982421875	1051.68359375	-860.5802612304688	-943.4902954101562	833.2225341796875	-873.0390014648438	-982.6778564453125	822.721923828125	-933.4984741210938	-1003.606384277344	954.569091796875	-929.960205078125	-954.8751220703125	648.8609008789062	-870.763916015625	-984.7007446289062	734.1873779296875	-928.7496948242188	-929.7196655273438	733.0585327148438	-891.5415649414062	-969.4873046875	1409.474487304688	-532.65283203125	-978.0549926757812	1354.33544921875	-464.0873107910156	-1006.260620117188	1095.255249023438	-392.3839111328125	-1037.0830078125	1081.55224609375	-481.9914855957031	-907.7177124023438	867.807373046875	-414.2559509277344	-960.351806640625	869.548095703125	-345.062744140625	-986.6583251953125	1028.4736328125	-372.0726013183594	-903.7546997070312	683.6066284179688	-396.7676086425781	-882.299560546875	755.2776489257812	-380.9044189453125	-937.72314453125	758.658935546875	-335.1278381347656	-1026.502807617188	1579.31298828125	-637.3884887695312	-846.4348754882812	1629.268676757812	-739.4005737304688	-858.3594970703125	1631.737182617188	-647.0845947265625	-1006.6103515625	1565.739501953125	-781.2175903320312	-1059.811157226562	948.0973510742188	-836.1636352539062	-1007.617126464844	944.6377563476562	-464.1757202148438	-895.38623046875	949.138671875	-543.5736694335938	-920.205322265625	950.3289794921875	-793.8565673828125	-1007.543151855469	479.9866638183594	-796.14453125	-1008.760192871094	621.9938354492188	-821.4927368164062	-1124.260375976562	47.12640762329102	-751.6869506835938	-1071.377685546875	257.4701843261719	-782.5897216796875	-912.7461547851562	38.38663101196289	-714.5928344726562	-978.04345703125	32.00851058959961	-666.526123046875	-1004.119567871094	41.83292007446289	-777.0527954101562	-1163.8134765625	44.38600921630859	-687.501220703125	-937.067626953125	475.7342224121094	-483.4979248046875	-934.515380859375	739.5242919921875	-466.7647094726562	-1102.544555664062	57.09200668334961	-472.7391662597656	-953.5736083984375	351.056640625	-485.8440856933594	-909.7515869140625	43.36630630493164	-526.6890258789062	-968.4833374023438	40.0925407409668	-566.16162109375	-999.4668579101562	41.37501907348633	-451.2098388671875	-1156.695556640625	53.20408630371094	-519.5728149414062	
69	0.68	-1113.998901367188	996.6015625	-561.7096557617188	-1124.015014648438	995.875244140625	-736.8494262695312	-1097.466918945312	1072.959106445312	-655.1873779296875	-832.4661865234375	1231.360229492188	-679.1795043945312	-1101.466674804688	1188.647583007812	-660.533203125	-1038.023071289062	1428.380004882812	-691.0169677734375	-888.6423950195312	1335.037475585938	-685.2350463867188	-1095.4755859375	1299.285278320312	-606.0994262695312	-1059.797973632812	1386.889282226562	-792.7547607421875	-971.7100830078125	1383.649780273438	-849.176025390625	-1006.181762695312	1264.214721679688	-915.9821166992188	-1008.211242675781	1059.362915039062	-925.3516235351562	-1067.053588867188	1051.48974609375	-862.19287109375	-940.7264404296875	833.1583251953125	-873.7201538085938	-979.57666015625	822.5949096679688	-934.3695678710938	-1000.567504882812	954.3234252929688	-930.9356689453125	-951.5911865234375	648.780517578125	-871.6298828125	-981.39453125	734.0667114257812	-929.683837890625	-926.6290893554688	733.0484619140625	-892.2371215820312	-967.068359375	1409.345947265625	-533.4740600585938	-976.1494750976562	1354.286865234375	-464.9194946289062	-1006.291076660156	1095.45361328125	-393.2235717773438	-1036.94140625	1081.874145507812	-482.8041687011719	-909.5963134765625	867.1843872070312	-414.2529907226562	-962.4683227539062	869.4763793945312	-345.2559204101562	-987.3165893554688	1028.5732421875	-372.6208190917969	-906.9923095703125	683.0175170898438	-396.224365234375	-885.0783081054688	754.5751342773438	-380.4462280273438	-940.795654296875	758.4559936523438	-335.0159606933594	-1023.86279296875	1578.724731445312	-638.5101318359375	-843.7706298828125	1628.988525390625	-740.2256469726562	-855.8480224609375	1631.53955078125	-647.9341430664062	-1003.703002929688	1565.04541015625	-782.2853393554688	-1059.216186523438	948.04833984375	-837.0952758789062	-1006.401062011719	944.2201538085938	-465.1769104003906	-894.0860595703125	948.9769287109375	-544.6767578125	-919.5619506835938	950.3787231445312	-794.9695434570312	-1007.356811523438	480.0677490234375	-796.8327026367188	-1008.350402832031	622.0274047851562	-822.1709594726562	-1124.09375	47.43116760253906	-751.6016235351562	-1071.113037109375	257.5610961914062	-782.6851806640625	-912.541015625	38.11165618896484	-714.6913452148438	-977.9758911132812	32.02236938476562	-666.4840087890625	-1003.985595703125	41.78466796875	-777.041015625	-1163.527465820312	44.81291198730469	-687.367431640625	-933.8142700195312	475.7644653320312	-483.3679809570312	-932.7197265625	739.5702514648438	-467.5571594238281	-1101.9404296875	58.16058731079102	-472.0253601074219	-950.6993408203125	351.103271484375	-485.9035949707031	-909.518310546875	43.21697235107422	-526.9085693359375	-968.4456787109375	40.20798110961914	-566.0489501953125	-999.0679931640625	41.57514190673828	-450.8916625976562	-1156.312255859375	54.61465072631836	-518.6271362304688	
